<svg width="59" height="58" viewBox="0 0 59 58" fill="none" xmlns="http://www.w3.org/2000/svg">
<path d="M32.7121 57.2701C32.3572 56.9495 32.1798 56.5576 32.3572 55.7739C32.4074 55.5525 32.5347 55.0449 33.2607 53.9928C34.7056 51.8987 37.0582 48.7563 37.3066 48.2576C37.555 47.7589 37.8956 47.1049 37.9099 46.4052C38.4674 46.8583 38.7455 47.1177 38.9584 48.0082C39.0649 48.97 38.9939 49.1481 38.6907 49.8962C38.0751 51.2684 36.7326 52.9359 34.2737 56.0589C33.8946 56.618 33.8219 56.7543 33.7413 57.1632C33.7242 57.4333 33.8393 57.6469 34.006 57.8044C33.5252 57.796 33.067 57.5907 32.7121 57.2701Z" fill="url(#paint0_linear_122_323)"/>
<path d="M29.2261 46.8858C27.219 46.3089 25.9287 44.2898 25.5703 41.6216C25.5703 41.6216 27.1473 44.2537 31.3766 44.434C35.606 44.6143 36.4303 45.083 37.864 46.0204C39.2977 46.9579 39.1577 48.9497 38.7506 49.713C37.2452 47.5496 31.2333 47.4627 29.2261 46.8858Z" fill="url(#paint1_linear_122_323)"/>
<path fill-rule="evenodd" clip-rule="evenodd" d="M32.6918 45.032C47.2214 39.7437 57.571 31.5304 55.8082 26.6872C54.0454 21.844 40.8378 22.2049 26.3082 27.4932C11.7786 32.7816 1.42902 40.9948 3.1918 45.838C4.95458 50.6812 18.1622 50.3204 32.6918 45.032ZM29.3274 35.991C31.2289 35.2989 32.6165 34.3151 32.4267 33.7936C32.2369 33.2721 30.5416 33.4104 28.64 34.1025C26.7385 34.7946 25.3508 35.7784 25.5406 36.2999C25.7304 36.8214 27.4258 36.6831 29.3274 35.991Z" fill="url(#paint2_linear_122_323)"/>
<path fill-rule="evenodd" clip-rule="evenodd" d="M32.6918 45.032C47.2214 39.7437 57.571 31.5304 55.8082 26.6872C54.0454 21.844 40.8378 22.2049 26.3082 27.4932C11.7786 32.7816 1.42902 40.9948 3.1918 45.838C4.95458 50.6812 18.1622 50.3204 32.6918 45.032ZM29.3274 35.991C31.2289 35.2989 32.6165 34.3151 32.4267 33.7936C32.2369 33.2721 30.5416 33.4104 28.64 34.1025C26.7385 34.7946 25.3508 35.7784 25.5406 36.2999C25.7304 36.8214 27.4258 36.6831 29.3274 35.991Z" fill="url(#paint3_radial_122_323)" fill-opacity="0.2" style="mix-blend-mode:multiply"/>
<path fill-rule="evenodd" clip-rule="evenodd" d="M32.6918 45.032C47.2214 39.7437 57.571 31.5304 55.8082 26.6872C54.0454 21.844 40.8378 22.2049 26.3082 27.4932C11.7786 32.7816 1.42902 40.9948 3.1918 45.838C4.95458 50.6812 18.1622 50.3204 32.6918 45.032ZM29.3274 35.991C31.2289 35.2989 32.6165 34.3151 32.4267 33.7936C32.2369 33.2721 30.5416 33.4104 28.64 34.1025C26.7385 34.7946 25.3508 35.7784 25.5406 36.2999C25.7304 36.8214 27.4258 36.6831 29.3274 35.991Z" fill="#F75CF0" fill-opacity="0.06"/>
<path fill-rule="evenodd" clip-rule="evenodd" d="M29.8398 37.9375C34.014 36.4182 36.9641 33.9949 36.4291 32.5248C35.894 31.0548 32.0764 31.0947 27.9022 32.6139C23.728 34.1332 20.7779 36.5566 21.313 38.0266C21.848 39.4967 25.6656 39.4568 29.8398 37.9375ZM29.3273 35.991C31.2289 35.2989 32.6165 34.3151 32.4267 33.7936C32.2369 33.2721 30.5415 33.4104 28.64 34.1025C26.7384 34.7946 25.3508 35.7784 25.5406 36.2999C25.7304 36.8214 27.4258 36.6831 29.3273 35.991Z" fill="url(#paint4_radial_122_323)"/>
<path d="M20.1895 28.6965C19.5387 28.1086 19.2133 27.39 19.5387 25.9529C19.6306 25.5468 19.8641 24.6161 21.1955 22.6866C23.8453 18.8464 28.1594 13.0838 28.615 12.1692C29.0706 11.2546 29.6952 10.0554 29.7214 8.77228C30.7436 9.60308 31.2537 10.0788 31.6442 11.7119C31.8394 13.4757 31.7093 13.8023 31.1532 15.1742C30.0243 17.6905 27.5624 20.7485 23.0532 26.4755C22.3579 27.5008 22.2246 27.7506 22.0769 28.5005C22.0455 28.9959 22.2565 29.3876 22.5622 29.6764C21.6806 29.661 20.8403 29.2845 20.1895 28.6965Z" fill="url(#paint5_linear_122_323)"/>
<path d="M13.7967 9.6536C10.1159 8.59567 7.74975 4.89292 7.09247 0C7.09247 0 9.98449 4.8268 17.7404 5.1574C25.4963 5.488 27.008 6.34757 29.6371 8.0667C32.2662 9.78584 32.0094 13.4384 31.2629 14.8382C28.5023 10.871 17.4775 10.7115 13.7967 9.6536Z" fill="url(#paint6_linear_122_323)"/>
<path d="M25.4904 35.2222C24.9208 34.7915 24.6058 34.2317 24.7678 33.0428C24.8135 32.7069 24.9369 31.9354 25.8799 30.2757C27.7568 26.9727 30.8473 21.992 31.152 21.2178C31.4566 20.4436 31.8782 19.4265 31.8084 18.3838C32.6966 18.9852 33.1441 19.3349 33.5767 20.6319C33.8603 22.0488 33.7779 22.323 33.4242 23.4752C32.687 25.5965 30.907 28.2518 27.6557 33.2173C27.1645 34.0984 27.0741 34.3105 27.0075 34.9293C27.0172 35.3333 27.2162 35.6361 27.4846 35.8487C26.7684 35.8987 26.0601 35.6529 25.4904 35.2222Z" fill="url(#paint7_linear_122_323)"/>
<path d="M18.9534 20.2289C15.8926 19.632 13.7104 16.7963 12.83 12.874C12.83 12.874 15.5185 16.5841 21.8333 16.3019C28.1481 16.0196 29.4353 16.6096 31.69 17.8175C33.9446 19.0254 33.9956 22.0065 33.4893 23.1949C30.9685 20.1728 22.0142 20.8258 18.9534 20.2289Z" fill="url(#paint8_linear_122_323)"/>
<path d="M33.6374 28.059C33.9541 29.141 33.9087 29.3597 33.7122 30.2793C33.4236 31.4228 32.7843 32.7954 31.7295 34.8091C30.4554 35.6285 29.6734 35.9827 28.1833 36.3956C28.2228 36.304 28.2653 36.1775 28.3109 36.078C29.5451 33.383 31.6085 29.3017 31.7926 28.6793C31.9767 28.0568 32.2352 27.2376 32.1101 26.4319C32.8413 26.839 33.2129 27.0803 33.6374 28.059Z" fill="url(#paint9_linear_122_323)"/>
<path d="M22.2441 28.7401C19.8245 28.4843 17.9356 26.4287 16.9846 23.4399C16.9846 23.4399 19.3265 26.1408 24.2154 25.492C29.1043 24.8432 30.145 25.2142 31.9795 25.9998C33.8141 26.7853 34.0564 29.0988 33.7437 30.057C31.5789 27.8794 24.6637 28.9959 22.2441 28.7401Z" fill="url(#paint10_linear_122_323)"/>
<defs>
<linearGradient id="paint0_linear_122_323" x1="37.1498" y1="45.479" x2="35.6126" y2="55.1666" gradientUnits="userSpaceOnUse">
<stop stop-color="#6D36C7"/>
<stop offset="1" stop-color="#F75CF0"/>
</linearGradient>
<linearGradient id="paint1_linear_122_323" x1="24.0945" y1="42.385" x2="50.2515" y2="47.0668" gradientUnits="userSpaceOnUse">
<stop offset="0.270847" stop-color="#B885D8"/>
<stop offset="1" stop-color="#F75CF0"/>
</linearGradient>
<linearGradient id="paint2_linear_122_323" x1="51.1405" y1="15.3048" x2="-20.9041" y2="55.7132" gradientUnits="userSpaceOnUse">
<stop offset="0.129009" stop-color="#E3D2F8"/>
<stop offset="0.804318" stop-color="#6D36C7"/>
</linearGradient>
<radialGradient id="paint3_radial_122_323" cx="0" cy="0" r="1" gradientUnits="userSpaceOnUse" gradientTransform="translate(29.4897 34.5634) rotate(72.3498) scale(10.7725 30.9465)">
<stop offset="0.837377" stop-color="#B885D8" stop-opacity="0"/>
<stop offset="0.884711" stop-color="#6D36C7"/>
</radialGradient>
<radialGradient id="paint4_radial_122_323" cx="0" cy="0" r="1" gradientUnits="userSpaceOnUse" gradientTransform="translate(28.9298 35.0891) rotate(70.9744) scale(2.86272 8.1286)">
<stop offset="0.209631"/>
<stop offset="0.695871" stop-color="#323232"/>
<stop offset="0.963542"/>
</radialGradient>
<linearGradient id="paint5_linear_122_323" x1="28.3274" y1="7.07382" x2="25.5085" y2="24.8391" gradientUnits="userSpaceOnUse">
<stop stop-color="#6D36C7"/>
<stop offset="1" stop-color="#F75CF0"/>
</linearGradient>
<linearGradient id="paint6_linear_122_323" x1="4.38613" y1="1.39983" x2="52.3536" y2="9.98546" gradientUnits="userSpaceOnUse">
<stop offset="0.270847" stop-color="#B885D8"/>
<stop offset="1" stop-color="#F75CF0"/>
</linearGradient>
<linearGradient id="paint7_linear_122_323" x1="30.5571" y1="17.105" x2="29.5313" y2="31.7157" gradientUnits="userSpaceOnUse">
<stop stop-color="#6D36C7"/>
<stop offset="1" stop-color="#F75CF0"/>
</linearGradient>
<linearGradient id="paint8_linear_122_323" x1="10.7341" y1="14.2016" x2="50.2531" y2="17.7618" gradientUnits="userSpaceOnUse">
<stop offset="0.270847" stop-color="#B885D8"/>
<stop offset="1" stop-color="#F75CF0"/>
</linearGradient>
<linearGradient id="paint9_linear_122_323" x1="31.0506" y1="25.5231" x2="31.2468" y2="36.9489" gradientUnits="userSpaceOnUse">
<stop stop-color="#6D36C7"/>
<stop offset="1" stop-color="#F75CF0"/>
</linearGradient>
<linearGradient id="paint10_linear_122_323" x1="15.4458" y1="24.6143" x2="46.4038" y2="24.6942" gradientUnits="userSpaceOnUse">
<stop offset="0.270847" stop-color="#B885D8"/>
<stop offset="1" stop-color="#F75CF0"/>
</linearGradient>
</defs>
</svg>
